<svg width="550" height="550" viewBox="0 0 550 550" fill="none" xmlns="http://www.w3.org/2000/svg">
<path fill-rule="evenodd" clip-rule="evenodd" d="M90.2926 400.94C116.423 398.912 145.554 391.464 164.478 410.142C185.422 430.814 191.528 464.295 183.61 493.044C176.098 520.317 152.794 540.343 126.406 548.365C104.191 555.119 84.0729 539.379 62.8811 529.748C40.072 519.382 9.66752 516.309 2.05156 491.851C-5.89034 466.346 10.5309 439.604 28.914 420.664C44.8587 404.237 67.8084 402.686 90.2926 400.94Z" fill="#DEEBF8"/>
<path fill-rule="evenodd" clip-rule="evenodd" d="M380.442 170.633C362.636 150.846 338.841 132.014 341.268 105.146C343.953 75.407 365.615 49.6498 392.408 38.1353C417.823 27.2126 447.557 33.521 470.083 49.7855C489.045 63.4773 489.596 89.4799 495.461 112.545C501.774 137.371 518.361 163.776 504.5 185.134C490.047 207.406 459.489 210.821 433.644 207.8C411.227 205.18 395.764 187.659 380.442 170.633Z" fill="#FFFAD1"/>
</svg>
